<svg width="6764" height="1053" viewBox="0 0 6764 1053" fill="none" xmlns="http://www.w3.org/2000/svg">
<path fill-rule="evenodd" clip-rule="evenodd" d="M2724.17 6.41229C2724.9 18.2576 2730.1 31.7596 2738.54 43.7351C2745.91 54.1921 2759.86 67.2981 2775.81 78.7363C2795.7 93.0032 2832.73 111.321 2869.31 124.992C2876.37 127.628 2882.43 130.063 2882.8 130.402C2883.65 131.207 2838.31 130.556 2827.22 129.604C2795.69 126.895 2769.23 122.482 2741.73 115.343C2725.85 111.222 2725.94 111.243 2725.94 111.626C2725.94 111.814 2727.13 114.343 2728.58 117.247C2744.08 148.209 2787.16 168.464 2856.82 177.543C2873.71 179.745 2895.01 181.648 2913.21 182.582C2921.55 183.01 2924.01 183.629 2920.12 184.319C2919.12 184.496 2912.93 185.868 2906.36 187.368C2886.19 191.969 2858.53 196.329 2833.14 198.91C2819.9 200.256 2785.74 202.44 2776.4 202.537L2773.92 202.563L2775.05 204.371C2778.11 209.3 2781.28 212.846 2785.46 216.029C2804.17 230.264 2838.39 237.09 2891.02 237.09C2904.77 237.09 2929.43 236.363 2936.07 235.761C2937.88 235.597 2943.94 235.151 2949.55 234.771C2955.16 234.391 2960.63 233.912 2961.72 233.707C2964.73 233.139 2963.04 234.403 2958.1 236.415C2921.84 251.192 2886.51 262.054 2844.66 271.289C2837.07 272.964 2830.75 274.451 2830.61 274.594C2829.94 275.254 2836.24 281.661 2840.22 284.383C2858.61 296.945 2892.98 299.441 2944.29 291.941C2959.32 289.744 2978.78 286.024 2995.73 282.107C3001.92 280.679 3007.29 279.51 3007.68 279.51C3008.07 279.51 3002.77 282.796 2995.9 286.813C2965 304.895 2940.81 319.797 2927.85 328.737C2920.26 333.971 2909 342.4 2908.49 343.232C2908.03 343.976 2916 347.353 2922.39 349.126C2938.86 353.69 2959.3 352.296 2983.42 344.963C2994.03 341.738 3014.14 333.644 3042.02 321.379C3074.94 306.894 3089.51 301.591 3105.81 298.161C3113.15 296.613 3115.89 296.367 3126.13 296.327C3141.27 296.269 3148.44 297.759 3159.42 303.241L3164.43 305.742L3166.51 295.75C3170.74 275.384 3171.45 268.883 3171.47 250.573C3171.49 231.707 3170.81 226.334 3166.91 214.635C3161.48 198.332 3153.07 185.975 3139.95 175.026C3124.04 161.757 3104.89 152.13 3070.23 139.971C3060.35 136.506 3028.67 126.568 2980.46 111.815C2929.14 96.1074 2869.88 74.9679 2835.77 60.1953C2794.22 42.2054 2760.27 24.2417 2733.63 6.165C2728.63 2.77405 2724.37 0 2724.16 0C2723.94 0 2723.95 2.8852 2724.17 6.41229ZM3673.93 2.33342C3667.94 6.64116 3648.27 18.958 3637.73 24.9941C3613.17 39.0545 3572.51 58.221 3542.11 70.0617C3507.74 83.4499 3450.62 103.214 3422.74 111.359C3413.65 114.016 3349.77 133.873 3341.19 136.709C3330.11 140.372 3309.75 147.813 3304.91 149.965C3303.16 150.743 3299.66 152.301 3297.13 153.428C3274.01 163.713 3255.36 178.01 3245.25 193.193C3238.28 203.657 3233.8 215.144 3231.2 229.198C3229.64 237.592 3229.69 261.585 3231.28 273.262C3232.32 280.919 3236.73 304.263 3237.3 305.197C3237.43 305.401 3240.16 304.288 3243.37 302.726C3251.51 298.763 3260.34 296.623 3270.49 296.152C3292.44 295.136 3313.41 300.876 3355 319.288C3405.61 341.688 3422.6 347.697 3444.2 350.838C3460.59 353.22 3476.91 351.213 3490.68 345.123C3494.14 343.594 3494.22 343.73 3485.66 337.18C3471.15 326.087 3443.99 309.007 3401.86 284.468C3397.6 281.991 3394.24 279.845 3394.38 279.701C3394.53 279.557 3399.19 280.505 3404.73 281.809C3443.92 291.014 3480.12 296.054 3507.25 296.08C3519.62 296.092 3525.31 295.716 3534.88 294.256C3540.62 293.38 3550.2 290.352 3555.85 287.63C3560.83 285.227 3562.98 283.694 3567.01 279.665C3569.76 276.921 3571.71 274.585 3571.36 274.476C3571.01 274.365 3564.65 272.931 3557.24 271.288C3520.71 263.194 3493.55 255.309 3463.19 243.983C3441.38 235.845 3434.74 232.888 3440.17 233.726C3441.44 233.92 3447.06 234.396 3452.67 234.783C3458.27 235.169 3464.64 235.618 3466.81 235.78C3486.29 237.237 3527.07 237.436 3543.43 236.155C3588.8 232.603 3616.68 222.165 3626.24 205.152L3627.69 202.563L3624.53 202.524C3622.79 202.503 3619.44 202.372 3617.09 202.232C3614.73 202.093 3609.26 201.804 3604.92 201.59C3578.86 200.306 3548.59 197.084 3524.03 192.977C3506.1 189.981 3480.29 184.367 3480.29 183.464C3480.29 183.238 3486.43 182.691 3493.94 182.249C3585.65 176.853 3641.26 159.449 3666.22 128.327C3669.72 123.963 3676.24 112.204 3675.54 111.509C3675.32 111.289 3674.37 111.405 3673.42 111.767C3672.47 112.128 3667.06 113.614 3661.41 115.069C3633.1 122.355 3606.16 126.886 3574.99 129.601C3562.89 130.655 3518.14 131.222 3518.7 130.314C3518.96 129.9 3519.47 129.561 3519.84 129.561C3522.8 129.561 3563.76 112.672 3581.57 104.111C3636.92 77.4999 3668.89 47.6331 3676.22 15.6789C3677.6 9.62304 3678.51 0 3677.69 0C3677.4 0 3675.71 1.0503 3673.93 2.33342ZM3192.56 79.2342C3165.47 84.2542 3148.28 111.094 3155.07 137.782C3158.18 149.975 3167.48 161.76 3178.73 167.732L3183.01 170.008L3183.02 174.776L3183.02 179.544H3180.37C3172.7 179.544 3168.23 185.589 3170.84 192.425C3172.27 196.171 3174.18 197.41 3179.28 197.898L3183.35 198.288L3183.43 201.783C3183.47 203.705 3183.69 214.655 3183.92 226.116C3184.15 237.578 3184.48 253.318 3184.66 261.095C3184.84 268.872 3185.13 282.19 3185.31 290.69C3187.73 405.78 3188.55 439.048 3188.98 439.328C3189.26 439.511 3192.03 440.218 3195.13 440.898C3200.66 442.111 3200.9 442.111 3206.43 440.898C3209.53 440.218 3212.34 439.496 3212.67 439.294C3213.17 438.985 3214.34 393.947 3216.22 302.857C3216.43 293.091 3216.72 280.217 3216.89 274.249C3217.05 268.28 3217.34 253.779 3217.54 242.023C3217.74 230.267 3218.08 215.543 3218.29 209.304L3218.68 197.959H3221.59C3229.52 197.959 3233.77 191.72 3230.76 184.507C3229.52 181.538 3227.42 180.278 3222.75 179.694L3218.87 179.209L3219.08 174.608C3219.31 169.527 3219.08 169.842 3225.26 166.391C3230.63 163.393 3237.99 156.043 3241.4 150.264C3242.89 147.74 3244.93 143.306 3245.93 140.413C3247.6 135.623 3247.76 134.326 3247.74 125.944C3247.73 117.745 3247.54 116.16 3245.97 111.475C3240.32 94.5099 3226.72 82.587 3209.25 79.2723C3202.97 78.0813 3198.83 78.0714 3192.56 79.2342ZM3102.47 321.276C3087.99 324.291 3076.48 333.021 3068.99 346.656C3057.73 367.158 3058.69 398.097 3071.25 418.986C3082.16 437.139 3098.96 449.53 3128.26 461.039L3138.28 464.973L3147 460.771C3159.31 454.842 3170.92 450.626 3190.12 445.108L3195.58 443.54L3178.29 439.413C3158.68 434.736 3148.17 431.44 3139.42 427.228C3116.04 415.981 3101.47 397.54 3101.47 379.197C3101.47 369.717 3104.6 363.163 3110.68 359.904C3114.91 357.633 3120.79 358.108 3128.68 361.359C3135.97 364.363 3140.57 364.986 3153.43 364.704C3168.18 364.382 3175.28 362.128 3176.15 357.49C3176.78 354.157 3174.6 350.685 3168.21 344.846C3165.1 342.008 3160.81 337.285 3158.67 334.349C3153.07 326.663 3150.79 325.46 3139.47 324.217C3135.75 323.808 3130.34 322.89 3127.45 322.177C3120.42 320.446 3108.51 320.017 3102.47 321.276ZM3281.34 320.797C3280.26 320.923 3277 321.582 3274.11 322.261C3271.22 322.941 3265.89 323.819 3262.28 324.213C3258.67 324.607 3254.6 325.264 3253.23 325.673C3250.12 326.605 3246.11 330.006 3243.41 333.992C3242.27 335.677 3238.01 340.312 3233.95 344.291C3228.24 349.882 3226.4 352.112 3225.86 354.109C3223.98 361.013 3230.27 364.12 3247.47 364.787C3259.42 365.25 3264.93 364.481 3273.96 361.09C3287.07 356.163 3293.73 358.205 3298.55 368.624C3300.15 372.092 3300.37 373.329 3300.33 378.818C3300.2 398.887 3284.48 417.736 3258.55 428.917C3249.49 432.82 3244.32 434.368 3223.61 439.369C3183.54 449.043 3161.91 456.017 3144.55 464.857C3121.61 476.537 3108.86 490.381 3104.04 508.85C3102.35 515.325 3102.21 526.02 3103.75 531.727C3107.29 544.841 3117.88 557.565 3134.35 568.514C3141.2 573.065 3153.55 580.066 3154.73 580.066C3155.14 580.066 3157.25 578.862 3159.41 577.39C3164.57 573.887 3179.65 565.997 3189.64 561.578L3197.58 558.065L3194.41 556.606C3179.19 549.592 3164.33 542.037 3159.13 538.674C3142.96 528.198 3140.76 518.921 3151.92 508.285C3156.4 504.011 3160.7 501.141 3168.45 497.25C3181.42 490.736 3194.62 486.029 3230.38 475.173C3243.94 471.055 3259.03 466.297 3263.92 464.601C3294.18 454.089 3313.88 441.8 3325.78 426.013C3346.31 398.759 3345.6 357.145 3324.2 334.858C3313.6 323.812 3298.4 318.824 3281.34 320.797ZM3149.65 341.59C3151.05 342.652 3155.39 348.043 3155.39 348.73C3155.4 349.547 3147.96 349.265 3146.21 348.382C3144.29 347.409 3141.59 343.618 3141.59 341.891C3141.59 340.858 3142.11 340.677 3145.04 340.694C3146.94 340.706 3149.01 341.109 3149.65 341.59ZM3259.71 342.811C3259.47 343.987 3258.41 345.826 3257.33 346.9C3255.62 348.617 3254.83 348.881 3250.77 349.111C3248.18 349.257 3246.16 349.103 3246.16 348.759C3246.16 348.423 3247.72 346.466 3249.64 344.41C3253.03 340.767 3253.2 340.673 3256.62 340.673H3260.14L3259.71 342.811ZM3252.41 471.005C3246.98 472.803 3237.07 475.893 3230.38 477.871C3223.68 479.85 3215.25 482.381 3211.63 483.498L3205.06 485.527L3210.97 487.763C3242.08 499.509 3256.68 509.976 3256.68 520.535C3256.68 524.621 3255.38 527.447 3251.62 531.488C3245.21 538.399 3233.62 544.814 3202.75 558.555C3183.72 567.027 3173.37 572.01 3166.15 576.177C3140.24 591.145 3127.94 610.294 3131.99 629.391C3133.37 635.923 3136.04 641.185 3140.92 646.971C3145.94 652.936 3151.68 657.608 3158.05 660.927L3163 663.506L3165.94 661.5C3170.54 658.366 3180.68 653.577 3188.65 650.779L3195.92 648.226L3188.55 645.757C3175.56 641.404 3169.37 637.457 3166.62 631.772C3163.32 624.961 3166.76 617.302 3176.1 610.636C3181.56 606.736 3186.91 604.344 3204.4 597.964C3226.25 589.994 3231.56 587.793 3245.31 580.995C3259.9 573.782 3273.03 565.303 3280.81 558.072C3293.94 545.861 3300.09 532.652 3299.18 518.573C3298.11 501.705 3289.38 486.594 3274.18 475.275C3269.94 472.124 3262.81 467.507 3262.43 467.67C3262.34 467.706 3257.83 469.207 3252.41 471.005ZM3195.21 488.946L3189.47 490.951L3189.86 505.42C3190.07 513.378 3190.43 527.189 3190.66 536.111L3191.07 552.335L3195.97 554.468L3200.86 556.603L3205.59 554.643L3210.32 552.683L3210.73 548.453C3210.96 546.126 3211.36 532.21 3211.62 517.529L3212.09 490.835L3206.52 488.888L3200.96 486.941L3195.21 488.946ZM3241.55 585.289C3237.47 587.399 3220.87 594.409 3211.06 598.163L3204.57 600.649L3210.08 602.724C3222.75 607.507 3231.37 613.74 3234.69 620.54C3236.14 623.493 3236.4 624.791 3236.16 627.72C3235.4 636.921 3227.93 641.597 3201.44 649.468C3177.68 656.528 3168.4 661.109 3159.54 670.164C3146.59 683.385 3147.03 705.285 3160.54 719.615C3164.6 723.93 3173.2 730.672 3174.64 730.672C3174.98 730.672 3176.13 730.054 3177.19 729.298C3178.25 728.543 3183.27 725.776 3188.34 723.15L3197.56 718.377L3191.57 714.924C3180.98 708.812 3175.13 702.1 3175.13 696.066C3175.13 689.747 3182.23 681.386 3191.3 677.023C3195.98 674.773 3201.57 673.229 3222.9 668.293C3239.42 664.47 3249.46 659.147 3258.7 649.306C3275.1 631.839 3274.49 611.035 3257.05 592.634C3252.56 587.894 3247.08 583.338 3245.94 583.385C3245.52 583.403 3243.54 584.26 3241.55 585.289ZM3195.6 603.906L3192.06 605.3L3192.54 624.744C3192.82 636.216 3193.28 644.353 3193.67 644.59C3194.02 644.811 3195.93 645.379 3197.9 645.852C3201.04 646.605 3201.94 646.573 3205.02 645.602L3208.54 644.492L3208.95 635.791C3209.17 631.005 3209.42 622.16 3209.51 616.135L3209.66 605.182L3205.71 603.798C3200.93 602.12 3200.11 602.128 3195.6 603.906ZM3232.65 668.183C3229.73 669.2 3222.78 670.986 3217.19 672.152C3207.46 674.182 3203.49 675.361 3206.23 675.408C3208 675.438 3213.87 678.576 3217.43 681.402C3227.99 689.771 3229.33 698.832 3221.22 706.947C3217.2 710.969 3211.74 714.346 3199.44 720.425C3184.07 728.02 3182.14 729.052 3176.78 732.549C3166.17 739.461 3159.69 748.687 3158.91 758.002C3158.06 768.096 3161.25 777.444 3167.73 783.826C3171.1 787.149 3184.31 795.795 3185.99 795.773C3186.35 795.769 3189.38 793.742 3192.73 791.269L3198.83 786.773L3193.89 782.992C3179.14 771.689 3176.04 762.4 3184.45 754.617C3188.12 751.217 3190.46 749.846 3209.63 739.883C3230.34 729.119 3233.91 726.929 3239.46 721.583C3247.21 714.113 3250.68 706.654 3251.25 696.247C3251.66 688.771 3250.85 684.197 3248.11 678.381C3246.42 674.809 3239.45 666.138 3238.38 666.277C3238.14 666.308 3235.56 667.166 3232.65 668.183ZM3196.83 677.359L3193.87 678.558L3193.9 682.583C3193.91 684.797 3193.98 692.67 3194.06 700.079L3194.2 713.55L3197.6 715.27L3200.99 716.989L3204.07 715.545L3207.15 714.102L3207.58 700.848C3207.82 693.558 3208.01 685.503 3208.01 682.947L3208.01 678.299L3204.5 677.192C3200.29 675.865 3200.53 675.86 3196.83 677.359ZM3215.08 739.713C3209.03 742.861 3204.07 745.605 3204.07 745.81C3204.07 746.015 3205.62 746.947 3207.52 747.882C3212.18 750.175 3217.66 754.384 3219.68 757.219C3223.76 762.96 3222.61 768.578 3215.89 775.65C3211.36 780.414 3209.13 782.221 3193.87 793.48C3178.71 804.672 3172.45 812.697 3171.94 821.604C3171.72 825.59 3171.92 826.562 3173.75 830.283C3176.07 834.995 3180.18 839.842 3185.85 844.562L3189.69 847.752L3194.18 844.292L3198.68 840.832L3194.91 837.215C3187.3 829.902 3185.58 823.961 3189.08 817.143C3192.12 811.247 3199.03 805.762 3215.58 796.11C3228.86 788.364 3231.69 786.433 3235.09 782.781C3240.6 776.883 3243.18 768.958 3242.75 759.243C3242.39 750.961 3240.02 746.097 3232.93 739.057C3230.1 736.254 3227.41 733.966 3226.94 733.974C3226.48 733.982 3221.14 736.564 3215.08 739.713ZM3197.99 748.474L3195.52 749.776V761.831C3195.52 768.461 3195.71 775.702 3195.94 777.921C3196.32 781.503 3196.61 782.146 3198.58 783.646L3200.79 785.335L3203.4 783.488L3206.01 781.642L3206.03 770.725C3206.04 764.72 3206.23 757.618 3206.45 754.941L3206.86 750.073L3203.8 748.594C3202.12 747.78 3200.68 747.127 3200.6 747.143C3200.52 747.159 3199.34 747.758 3197.99 748.474ZM3209.8 802.612C3206.63 804.542 3203.88 806.275 3203.69 806.461C3203.51 806.647 3205.26 808.632 3207.6 810.872C3214.47 817.475 3216.04 823.041 3212.89 829.678C3211.15 833.345 3205.03 839.239 3195.49 846.442C3176.3 860.919 3170.78 870.699 3176.18 880.628C3178.27 884.464 3183.89 889.946 3188.88 893.014L3192.24 895.083L3189.93 891.608C3184.75 883.81 3183.77 876.964 3186.88 870.383C3189.4 865.076 3193.63 861.028 3206.37 851.772C3219.35 842.341 3224.8 837.052 3227.78 831C3229.64 827.223 3229.98 825.812 3229.95 822.158C3229.89 815.881 3227.56 811.349 3220.88 804.523L3215.58 799.1L3209.8 802.612ZM3198.64 809.911L3196.83 811.503V823.656V835.81L3198.74 837.17C3201.04 838.804 3201.37 838.816 3203.15 837.331C3204.44 836.252 3204.55 835.35 3204.87 823.836L3205.21 811.499L3203.1 809.888C3201.94 809.002 3200.87 808.287 3200.72 808.298C3200.57 808.31 3199.64 809.035 3198.64 809.911ZM3207.22 854.072L3202.84 857.117L3206.34 859.966C3216.38 868.146 3219.1 876.788 3214.63 886.344C3213.48 888.785 3211.77 891.802 3210.82 893.048C3208.95 895.498 3209.15 895.431 3214.59 891.769C3218.79 888.94 3224.42 883.181 3226.16 879.925C3226.97 878.403 3227.38 876.26 3227.38 873.387C3227.39 869.873 3227.05 868.468 3225.43 865.495C3223.61 862.136 3213.41 851.026 3212.15 851.026C3211.84 851.026 3209.62 852.396 3207.22 854.072ZM3199.08 860.108C3197.73 861.238 3197.72 861.537 3198.12 881.302C3198.35 892.33 3198.76 901.718 3199.04 902.166C3199.93 903.607 3202.69 903.148 3203.04 901.502C3203.21 900.689 3203.53 891.266 3203.76 880.565L3204.17 861.106L3202.5 860.012C3200.5 858.704 3200.77 858.696 3199.08 860.108Z" fill="#402172"/>
<path d="M291.797 740.906C293.359 739.734 295.312 736.805 297.656 732.117L306.445 713.367L342.773 632.508C342.773 631.727 343.164 630.75 343.945 629.578L353.32 607.898C356.445 599.695 358.984 593.641 360.938 589.734L365.039 580.945C370.117 570.789 382.422 544.422 401.953 501.844C411.719 479.969 419.531 462 425.391 447.938C428.906 440.516 431.445 434.461 433.008 429.773L436.523 419.227C437.305 414.539 441.992 412.195 450.586 412.195H499.805L557.227 410.438C559.57 410.438 560.742 411.805 560.742 414.539V428.602C560.742 432.117 559.18 433.875 556.055 433.875H529.688C516.406 433.875 509.766 442.078 509.766 458.484L508.008 564.539V677.039L509.766 783.094C509.766 804.578 516.602 815.32 530.273 815.32H565.43C568.555 815.32 570.117 816.688 570.117 819.422V833.484C570.117 837 568.164 838.758 564.258 838.758L544.922 837.586C537.5 837.195 529.492 837 520.898 837H445.312C436.328 837 427.734 837.195 419.531 837.586L394.336 838.758C390.82 838.758 389.062 837 389.062 833.484V819.422C389.062 816.688 390.82 815.32 394.336 815.32H434.766C445.312 815.32 450.977 808.094 451.758 793.641L452.93 637.781L452.344 467.859C451.953 455.359 451.562 448.523 451.172 447.352H450C449.219 448.133 447.461 451.844 444.727 458.484L384.961 585.633L351.562 659.461L280.664 820.594L278.32 825.281C275.586 828.797 273.242 830.555 271.289 830.555C267.773 830.555 264.648 826.844 261.914 819.422L165.234 581.531L141.797 526.453C132.812 504.578 125.586 487.586 120.117 475.477L111.328 457.898C108.984 453.211 107.227 450.281 106.055 449.109C105.664 450.672 105.469 453.992 105.469 459.07L104.297 478.406L102.539 588.562V739.734C102.93 756.141 103.32 766.688 103.711 771.375C106.055 800.672 115.234 815.32 131.25 815.32H161.133C163.867 815.32 165.234 816.688 165.234 819.422V834.656C165.234 837.391 163.477 838.758 159.961 838.758L140.039 837.586C133.398 837.195 126.367 837 118.945 837H54.4922C46.6797 837 39.0625 837.195 31.6406 837.586L9.96094 838.758C6.44531 838.758 4.6875 837 4.6875 833.484V818.836C4.6875 816.492 5.85938 815.32 8.20312 815.32H39.8438C56.6406 815.32 67.3828 803.406 72.0703 779.578C73.6328 769.422 75 753.211 76.1719 730.945C77.3438 712.586 78.3203 690.32 79.1016 664.148L80.8594 582.703V480.75L80.2734 456.141C79.8828 447.547 78.9062 442.078 77.3438 439.734C74.2188 435.828 66.9922 433.875 55.6641 433.875H19.3359C16.2109 433.875 14.6484 432.508 14.6484 429.773V413.953C14.6484 411.609 16.2109 410.438 19.3359 410.438L59.7656 412.195H110.742C113.477 411.805 116.211 411.609 118.945 411.609L143.555 410.438C150.977 410.438 156.055 413.758 158.789 420.398L291.797 740.906ZM659.766 722.156C660.352 722.156 662.5 722.059 666.211 721.863C670.117 721.863 674.121 721.766 678.223 721.57L690.527 720.984C694.629 720.789 697.07 720.594 697.852 720.398C704.688 719.227 709.277 714.832 711.621 707.215C712.988 702.723 713.77 697.742 713.965 692.273C713.965 690.906 714.648 690.223 716.016 690.223L723.633 690.516C725.195 690.516 725.781 691.297 725.391 692.859C725.195 694.227 725 696.57 724.805 699.891L724.512 727.137C724.512 731.824 724.707 737.586 725.098 744.422L726.27 758.484C726.27 759.656 725.684 760.438 724.512 760.828L717.773 761.707C716.406 761.902 715.625 761.023 715.43 759.07C715.234 757.312 714.746 754.871 713.965 751.746L712.207 745.008C710.254 737.977 705.957 734.07 699.316 733.289C693.262 732.703 685.449 732.312 675.879 732.117C672.754 731.922 669.434 731.824 665.918 731.824H659.766L660.352 801.551C660.547 815.027 666.211 822.84 677.344 824.988C684.375 826.355 691.797 827.039 699.609 827.039L725.977 826.16C729.492 825.77 733.496 824.793 737.988 823.23C744.043 821.277 748.73 818.738 752.051 815.613L756.738 810.633C759.082 808.094 761.523 804.969 764.062 801.258C770.312 793.25 774.512 787.586 776.66 784.266C777.832 782.508 779.004 781.922 780.176 782.508L785.156 785.145C786.328 785.926 786.523 787.293 785.742 789.246L769.629 833.484C768.652 836.414 766.504 837.879 763.184 837.879L748.535 837.293L622.852 837L604.688 837.879C602.93 837.879 602.051 837.195 602.051 835.828V827.625C602.051 826.648 603.027 826.16 604.98 826.16H616.992C623.828 826.16 628.027 825.379 629.59 823.816C631.152 822.449 631.934 818.836 631.934 812.977V712.488C631.934 700.77 631.836 687.195 631.641 671.766L631.055 647.156C630.078 639.344 625 635.438 615.82 635.438H604.98C603.418 635.438 602.637 634.754 602.637 633.387V625.184C602.637 624.207 603.32 623.719 604.688 623.719L628.418 624.598L747.656 624.305C748.633 624.109 749.805 624.012 751.172 624.012L755.859 623.719C757.031 623.719 757.91 624.207 758.496 625.184C758.691 626.16 759.57 629.188 761.133 634.266L773.73 673.523C774.121 674.891 773.828 675.77 772.852 676.16L768.164 678.504C767.188 679.09 766.406 678.797 765.82 677.625C765.625 677.234 764.355 675.574 762.012 672.645L753.223 661.805C749.707 657.312 746.387 653.602 743.262 650.672C739.941 646.961 737.5 644.617 735.938 643.641C728.32 638.367 720.703 635.633 713.086 635.438L659.766 634.266V722.156ZM837.891 699.305C837.891 694.422 837.695 684.852 837.305 670.594C837.109 663.758 837.012 657.996 837.012 653.309C836.816 648.23 836.621 645.105 836.426 643.934C835.84 638.27 831.543 635.438 823.535 635.438H806.836C805.273 635.438 804.492 634.754 804.492 633.387V625.184C804.492 624.207 805.176 623.719 806.543 623.719L832.91 624.598L895.312 623.719C905.859 623.719 915.234 624.109 923.438 624.891C932.812 625.672 941.309 626.941 948.926 628.699C966.113 632.996 980.762 640.32 992.871 650.672C1003.22 659.656 1011.23 670.203 1016.89 682.312C1023.14 695.594 1026.27 710.535 1026.27 727.137C1026.27 758.191 1016.31 784.559 996.387 806.238C989.746 813.465 982.031 819.52 973.242 824.402C965.625 828.504 957.129 831.727 947.754 834.07C940.332 835.633 932.324 836.707 923.73 837.293C920.215 837.488 916.602 837.586 912.891 837.586C910.352 837.781 907.129 837.879 903.223 837.879L869.824 837.293C868.457 837.293 867.285 837.195 866.309 837H830.859C826.758 837 822.656 837.098 818.555 837.293L805.664 837.879C804.297 837.879 803.613 837.195 803.613 835.828V827.918C803.613 826.746 804.395 826.16 805.957 826.16H826.172C831.836 826.16 835.059 823.816 835.84 819.129C836.035 817.566 836.23 812.586 836.426 804.188C836.816 797.156 837.109 787.977 837.305 776.648C837.695 753.016 837.891 734.754 837.891 721.863V699.305ZM865.43 728.309L866.016 801.844C866.016 807.898 867.676 813.562 870.996 818.836C875.879 825.086 886.523 828.211 902.93 828.211C933.203 828.211 956.738 817.469 973.535 795.984C987.988 778.016 995.215 755.457 995.215 728.309C995.215 702.332 987.012 680.262 970.605 662.098C953.027 642.957 927.93 633.387 895.312 633.387H889.746C887.207 633.387 884.863 633.484 882.715 633.68C877.441 634.07 873.633 634.949 871.289 636.316C867.969 638.465 866.113 643.152 865.723 650.379L865.43 728.309Z" fill="#402172"/>
<path d="M1122.07 504.188C1122.07 485.047 1121.88 471.57 1121.48 463.758C1120.7 443.836 1113.09 433.875 1098.63 433.875H1074.61C1072.27 433.875 1071.09 432.508 1071.09 429.773V414.539C1071.09 411.805 1072.27 410.438 1074.61 410.438L1116.8 412.195H1177.15L1249.22 410.438C1298.44 410.438 1335.94 422.547 1361.72 446.766C1382.42 467.078 1392.77 489.93 1392.77 515.32C1392.77 551.648 1383.98 578.797 1366.41 596.766C1349.61 613.562 1321.29 626.453 1281.45 635.438V636.609C1288.09 638.953 1293.95 642.469 1299.02 647.156L1304.88 654.188L1337.7 697.547L1371.68 747.938L1387.5 769.617C1393.75 778.602 1399.22 786.023 1403.91 791.883C1409.77 798.914 1414.06 803.406 1416.8 805.359C1426.17 812 1440.62 815.32 1460.16 815.32C1463.28 815.32 1464.84 816.883 1464.84 820.008V833.484C1464.84 837 1463.28 838.758 1460.16 838.758L1444.92 837.586C1440.23 837.195 1435.55 837 1430.86 837H1413.28C1405.47 837 1396.29 837.195 1385.74 837.586C1381.45 837.586 1377.34 837.781 1373.44 838.172C1369.92 838.172 1366.99 838.367 1364.65 838.758C1363.09 837.586 1361.13 835.438 1358.79 832.312L1339.45 804.773C1338.28 803.211 1335.55 798.719 1331.25 791.297L1299.02 735.633L1281.45 709.266C1276.76 702.234 1272.85 696.18 1269.73 691.102L1260.94 679.969C1250.78 667.859 1242.38 659.656 1235.74 655.359C1224.8 648.328 1211.52 644.812 1195.9 644.812H1187.11C1183.2 645.203 1179.49 645.789 1175.98 646.57L1177.15 791.883C1178.71 807.508 1183.79 815.32 1192.38 815.32H1229.88C1233.4 815.32 1235.16 816.883 1235.16 820.008V833.484C1235.16 835.828 1234.77 837.195 1233.98 837.586C1233.2 838.367 1231.25 838.758 1228.12 838.758L1208.2 837.586C1201.17 837.195 1193.55 837 1185.35 837H1116.21C1108.01 837 1100.78 837.195 1094.53 837.586L1074.61 838.758C1072.66 838.758 1071.29 838.172 1070.51 837C1070.12 836.609 1069.92 835.633 1069.92 834.07V820.008C1069.92 816.883 1070.9 815.32 1072.85 815.32H1097.46C1113.09 815.32 1120.9 808.484 1120.9 794.812L1122.07 707.508V504.188ZM1175.98 623.133C1184.18 625.086 1193.16 626.062 1202.93 626.062C1228.71 626.062 1250.98 621.961 1269.73 613.758C1285.35 607.117 1298.63 597.547 1309.57 585.047C1317.77 575.281 1324.02 564.344 1328.32 552.234C1331.84 542.469 1333.59 533.68 1333.59 525.867C1333.59 496.57 1323.44 473.719 1303.12 457.312C1280.08 438.953 1246.88 429.773 1203.52 429.773C1194.92 429.773 1188.28 431.336 1183.59 434.461C1178.52 437.977 1175.98 444.422 1175.98 453.797V623.133ZM1528.12 722.156C1528.71 722.156 1530.86 722.059 1534.57 721.863C1538.48 721.863 1542.48 721.766 1546.58 721.57L1558.89 720.984C1562.99 720.789 1565.43 720.594 1566.21 720.398C1573.05 719.227 1577.64 714.832 1579.98 707.215C1581.35 702.723 1582.13 697.742 1582.32 692.273C1582.32 690.906 1583.01 690.223 1584.38 690.223L1591.99 690.516C1593.55 690.516 1594.14 691.297 1593.75 692.859C1593.55 694.227 1593.36 696.57 1593.16 699.891L1592.87 727.137C1592.87 731.824 1593.07 737.586 1593.46 744.422L1594.63 758.484C1594.63 759.656 1594.04 760.438 1592.87 760.828L1586.13 761.707C1584.77 761.902 1583.98 761.023 1583.79 759.07C1583.59 757.312 1583.11 754.871 1582.32 751.746L1580.57 745.008C1578.61 737.977 1574.32 734.07 1567.68 733.289C1561.62 732.703 1553.81 732.312 1544.24 732.117C1541.11 731.922 1537.79 731.824 1534.28 731.824H1528.12L1528.71 801.551C1528.91 815.027 1534.57 822.84 1545.7 824.988C1552.73 826.355 1560.16 827.039 1567.97 827.039L1594.34 826.16C1597.85 825.77 1601.86 824.793 1606.35 823.23C1612.4 821.277 1617.09 818.738 1620.41 815.613L1625.1 810.633C1627.44 808.094 1629.88 804.969 1632.42 801.258C1638.67 793.25 1642.87 787.586 1645.02 784.266C1646.19 782.508 1647.36 781.922 1648.54 782.508L1653.52 785.145C1654.69 785.926 1654.88 787.293 1654.1 789.246L1637.99 833.484C1637.01 836.414 1634.86 837.879 1631.54 837.879L1616.89 837.293L1491.21 837L1473.05 837.879C1471.29 837.879 1470.41 837.195 1470.41 835.828V827.625C1470.41 826.648 1471.39 826.16 1473.34 826.16H1485.35C1492.19 826.16 1496.39 825.379 1497.95 823.816C1499.51 822.449 1500.29 818.836 1500.29 812.977V712.488C1500.29 700.77 1500.2 687.195 1500 671.766L1499.41 647.156C1498.44 639.344 1493.36 635.438 1484.18 635.438H1473.34C1471.78 635.438 1471 634.754 1471 633.387V625.184C1471 624.207 1471.68 623.719 1473.05 623.719L1496.78 624.598L1616.02 624.305C1616.99 624.109 1618.16 624.012 1619.53 624.012L1624.22 623.719C1625.39 623.719 1626.27 624.207 1626.86 625.184C1627.05 626.16 1627.93 629.188 1629.49 634.266L1642.09 673.523C1642.48 674.891 1642.19 675.77 1641.21 676.16L1636.52 678.504C1635.55 679.09 1634.77 678.797 1634.18 677.625C1633.98 677.234 1632.71 675.574 1630.37 672.645L1621.58 661.805C1618.07 657.312 1614.75 653.602 1611.62 650.672C1608.3 646.961 1605.86 644.617 1604.3 643.641C1596.68 638.367 1589.06 635.633 1581.45 635.438L1528.12 634.266V722.156ZM1785.94 841.395C1769.14 841.395 1754.3 838.953 1741.41 834.07C1730.27 829.578 1719.82 822.84 1710.06 813.855C1699.51 804.09 1691.5 791.102 1686.04 774.891C1680.57 760.242 1677.83 745.203 1677.83 729.773C1677.83 715.32 1680.27 701.453 1685.16 688.172C1690.23 673.914 1697.95 661.316 1708.3 650.379C1716.5 641.59 1726.86 634.461 1739.36 628.992C1753.42 623.133 1768.07 620.203 1783.3 620.203C1795.61 620.203 1807.81 622.156 1819.92 626.062C1828.71 628.797 1836.72 632.312 1843.95 636.609C1847.46 638.562 1849.51 638.562 1850.1 636.609L1852.44 627.82C1852.83 626.648 1854.1 626.062 1856.25 626.062C1858.59 626.062 1859.77 627.723 1859.77 631.043C1859.77 632.41 1860.06 635.73 1860.64 641.004L1862.99 659.168C1864.94 674.402 1866.31 684.363 1867.09 689.051C1867.48 690.809 1867.09 691.785 1865.92 691.98L1861.52 693.445C1860.16 693.641 1859.08 692.762 1858.3 690.809C1855.57 683.973 1852.83 678.211 1850.1 673.523C1845.61 666.102 1840.62 659.461 1835.16 653.602C1828.12 646.375 1820.8 640.906 1813.18 637.195C1804 632.703 1793.85 630.457 1782.71 630.457C1770.02 630.457 1758.59 633.191 1748.44 638.66C1739.26 643.738 1731.54 650.867 1725.29 660.047C1713.38 676.844 1707.52 697.547 1707.71 722.156C1707.71 727.039 1708.11 732.312 1708.89 737.977C1710.06 744.617 1711.62 751.16 1713.57 757.605C1715.72 765.223 1718.65 772.254 1722.36 778.699C1726.27 786.316 1731.05 793.152 1736.72 799.207C1746.09 809.559 1755.66 816.59 1765.43 820.301C1772.85 823.035 1782.42 824.402 1794.14 824.402C1809.96 824.402 1824.9 820.496 1838.96 812.684C1850.88 805.848 1860.64 797.059 1868.26 786.316C1869.04 784.949 1869.82 784.656 1870.61 785.438L1874.71 788.367C1875.68 789.148 1875.88 790.027 1875.29 791.004C1865.14 805.848 1853.22 817.566 1839.55 826.16C1823.34 836.316 1805.47 841.395 1785.94 841.395ZM2010.06 841.395C2001.27 841.395 1991.6 839.93 1981.05 837C1968.16 833.875 1956.35 828.895 1945.61 822.059C1933.69 814.832 1923.63 803.797 1915.43 788.953C1906.05 771.961 1901.37 753.309 1901.37 732.996C1901.37 727.723 1901.76 722.449 1902.54 717.176C1903.32 711.316 1904.69 705.262 1906.64 699.012C1911.33 684.363 1918.85 670.789 1929.2 658.289C1941.31 643.641 1955.08 633.191 1970.51 626.941C1976.76 624.598 1983.59 622.84 1991.02 621.668C1997.07 620.691 2003.61 620.203 2010.64 620.203C2021.97 620.203 2032.52 621.668 2042.29 624.598C2055.18 628.309 2066.99 634.754 2077.73 643.934C2090.04 654.48 2099.61 666.492 2106.45 679.969C2114.65 696.375 2118.75 714.246 2118.75 733.582C2118.75 757.215 2111.33 779.09 2096.48 799.207C2086.33 812.488 2074.8 822.547 2061.91 829.383C2046.88 837.391 2029.59 841.395 2010.06 841.395ZM2012.4 829.969C2027.83 829.969 2041.11 826.355 2052.25 819.129C2061.62 812.879 2069.43 804.09 2075.68 792.762C2080.76 783.777 2084.47 773.523 2086.82 762C2088.57 753.016 2089.45 744.324 2089.45 735.926C2089.45 720.301 2086.82 705.555 2081.54 691.688C2076.86 679.383 2070.31 668.543 2061.91 659.168C2045.7 640.809 2028.22 631.629 2009.47 631.629L2003.32 631.336C1999.61 631.336 1996 631.727 1992.48 632.508C1987.6 633.484 1982.81 635.145 1978.12 637.488C1972.46 640.223 1967.09 644.129 1962.01 649.207C1952.44 658.387 1944.92 670.105 1939.45 684.363C1934.38 697.254 1931.84 710.242 1931.84 723.328C1931.84 741.883 1934.86 758.582 1940.92 773.426C1946.19 785.926 1953.42 796.961 1962.6 806.531C1970.61 814.148 1979.39 820.105 1988.96 824.402C1997.56 828.113 2005.37 829.969 2012.4 829.969ZM2141.31 625.77C2141.31 624.402 2141.99 623.719 2143.36 623.719L2164.75 624.598H2196.39L2221 623.719C2223.14 623.719 2224.22 624.402 2224.22 625.77V632.801C2224.22 634.559 2223.34 635.438 2221.58 635.438H2207.23C2198.83 635.438 2194.63 637.977 2194.63 643.055C2194.63 646.18 2195.02 649.598 2195.8 653.309C2196.58 658.191 2199.22 668.055 2203.71 682.898C2205.27 688.367 2207.13 694.422 2209.28 701.062C2211.04 706.727 2212.7 711.902 2214.26 716.59C2216.41 723.621 2220.61 736.316 2226.86 754.676L2242.09 798.035H2242.68C2244.04 794.715 2246.48 788.66 2250 779.871C2252.93 772.84 2256.35 764.148 2260.25 753.797C2268.07 733.094 2272.95 720.203 2274.9 715.125L2289.26 672.645C2291.21 666.395 2292.68 662 2293.65 659.461C2295.21 654.578 2296.19 651.258 2296.58 649.5C2297.56 646.57 2298.05 644.129 2298.05 642.176C2298.05 637.684 2294.82 635.438 2288.38 635.438H2280.47C2279.49 635.438 2279 634.559 2279 632.801V625.77C2279 624.402 2279.59 623.719 2280.76 623.719L2292.48 624.012C2300.68 624.402 2308.59 624.598 2316.21 624.598C2325.2 624.598 2333.01 624.402 2339.65 624.012L2348.44 623.719C2349.8 623.719 2350.49 624.402 2350.49 625.77V633.387C2350.49 634.754 2349.8 635.438 2348.44 635.438H2340.23C2332.42 635.438 2325.29 639.344 2318.85 647.156C2317.09 649.305 2314.36 654.383 2310.64 662.391C2307.52 669.031 2303.81 677.527 2299.51 687.879L2283.11 727.723C2282.52 728.895 2282.13 729.969 2281.93 730.945C2281.15 733.289 2278.52 740.125 2274.02 751.453L2238.28 839.051C2237.11 841.59 2235.64 842.859 2233.89 842.859C2232.32 842.859 2230.66 840.613 2228.91 836.121L2191.11 729.188L2188.18 719.227L2167.38 657.703C2165.43 651.453 2163.96 647.352 2162.99 645.398C2160.06 638.758 2155.96 635.438 2150.68 635.438H2142.77C2141.8 635.438 2141.31 634.754 2141.31 633.387V625.77ZM2416.11 722.156C2416.7 722.156 2418.85 722.059 2422.56 721.863C2426.46 721.863 2430.47 721.766 2434.57 721.57L2446.88 720.984C2450.98 720.789 2453.42 720.594 2454.2 720.398C2461.04 719.227 2465.62 714.832 2467.97 707.215C2469.34 702.723 2470.12 697.742 2470.31 692.273C2470.31 690.906 2471 690.223 2472.36 690.223L2479.98 690.516C2481.54 690.516 2482.13 691.297 2481.74 692.859C2481.54 694.227 2481.35 696.57 2481.15 699.891L2480.86 727.137C2480.86 731.824 2481.05 737.586 2481.45 744.422L2482.62 758.484C2482.62 759.656 2482.03 760.438 2480.86 760.828L2474.12 761.707C2472.75 761.902 2471.97 761.023 2471.78 759.07C2471.58 757.312 2471.09 754.871 2470.31 751.746L2468.55 745.008C2466.6 737.977 2462.3 734.07 2455.66 733.289C2449.61 732.703 2441.8 732.312 2432.23 732.117C2429.1 731.922 2425.78 731.824 2422.27 731.824H2416.11L2416.7 801.551C2416.89 815.027 2422.56 822.84 2433.69 824.988C2440.72 826.355 2448.14 827.039 2455.96 827.039L2482.32 826.16C2485.84 825.77 2489.84 824.793 2494.34 823.23C2500.39 821.277 2505.08 818.738 2508.4 815.613L2513.09 810.633C2515.43 808.094 2517.87 804.969 2520.41 801.258C2526.66 793.25 2530.86 787.586 2533.01 784.266C2534.18 782.508 2535.35 781.922 2536.52 782.508L2541.5 785.145C2542.68 785.926 2542.87 787.293 2542.09 789.246L2525.98 833.484C2525 836.414 2522.85 837.879 2519.53 837.879L2504.88 837.293L2379.2 837L2361.04 837.879C2359.28 837.879 2358.4 837.195 2358.4 835.828V827.625C2358.4 826.648 2359.38 826.16 2361.33 826.16H2373.34C2380.18 826.16 2384.38 825.379 2385.94 823.816C2387.5 822.449 2388.28 818.836 2388.28 812.977V712.488C2388.28 700.77 2388.18 687.195 2387.99 671.766L2387.4 647.156C2386.43 639.344 2381.35 635.438 2372.17 635.438H2361.33C2359.77 635.438 2358.98 634.754 2358.98 633.387V625.184C2358.98 624.207 2359.67 623.719 2361.04 623.719L2384.77 624.598L2504 624.305C2504.98 624.109 2506.15 624.012 2507.52 624.012L2512.21 623.719C2513.38 623.719 2514.26 624.207 2514.84 625.184C2515.04 626.16 2515.92 629.188 2517.48 634.266L2530.08 673.523C2530.47 674.891 2530.18 675.77 2529.2 676.16L2524.51 678.504C2523.54 679.09 2522.75 678.797 2522.17 677.625C2521.97 677.234 2520.7 675.574 2518.36 672.645L2509.57 661.805C2506.05 657.312 2502.73 653.602 2499.61 650.672C2496.29 646.961 2493.85 644.617 2492.29 643.641C2484.67 638.367 2477.05 635.633 2469.43 635.438L2416.11 634.266V722.156ZM2593.07 670.594C2593.07 661.023 2592.97 654.285 2592.77 650.379C2592.38 640.418 2588.57 635.438 2581.35 635.438H2569.34C2568.16 635.438 2567.58 634.754 2567.58 633.387V625.77C2567.58 624.402 2568.16 623.719 2569.34 623.719L2590.43 624.598H2620.61L2656.64 623.719C2681.25 623.719 2700 629.773 2712.89 641.883C2723.24 652.039 2728.42 663.465 2728.42 676.16C2728.42 694.324 2724.02 707.898 2715.23 716.883C2706.84 725.281 2692.68 731.727 2672.75 736.219V736.805C2676.07 737.977 2679 739.734 2681.54 742.078L2684.47 745.594L2700.88 767.273L2717.87 792.469L2725.78 803.309C2728.91 807.801 2731.64 811.512 2733.98 814.441C2736.91 817.957 2739.06 820.203 2740.43 821.18C2745.12 824.5 2752.34 826.16 2762.11 826.16C2763.67 826.16 2764.45 826.941 2764.45 828.504V835.242C2764.45 837 2763.67 837.879 2762.11 837.879L2754.49 837.293C2752.15 837.098 2749.8 837 2747.46 837H2738.67C2734.77 837 2730.18 837.098 2724.9 837.293C2722.75 837.293 2720.7 837.391 2718.75 837.586C2716.99 837.586 2715.53 837.684 2714.36 837.879C2713.57 837.293 2712.6 836.219 2711.43 834.656L2701.76 820.887C2701.17 820.105 2699.8 817.859 2697.66 814.148L2681.54 786.316L2672.75 773.133C2670.41 769.617 2668.46 766.59 2666.89 764.051L2662.5 758.484C2657.42 752.43 2653.22 748.328 2649.9 746.18C2644.43 742.664 2637.79 740.906 2629.98 740.906H2625.59C2623.63 741.102 2621.78 741.395 2620.02 741.785L2620.61 814.441C2621.39 822.254 2623.93 826.16 2628.22 826.16H2646.97C2648.73 826.16 2649.61 826.941 2649.61 828.504V835.242C2649.61 836.414 2649.41 837.098 2649.02 837.293C2648.63 837.684 2647.66 837.879 2646.09 837.879L2636.13 837.293C2632.62 837.098 2628.81 837 2624.71 837H2590.14C2586.04 837 2582.42 837.098 2579.3 837.293L2569.34 837.879C2568.36 837.879 2567.68 837.586 2567.29 837C2567.09 836.805 2566.99 836.316 2566.99 835.535V828.504C2566.99 826.941 2567.48 826.16 2568.46 826.16H2580.76C2588.57 826.16 2592.48 822.742 2592.48 815.906L2593.07 772.254V670.594ZM2620.02 730.066C2624.12 731.043 2628.61 731.531 2633.5 731.531C2646.39 731.531 2657.52 729.48 2666.89 725.379C2674.71 722.059 2681.35 717.273 2686.82 711.023C2690.92 706.141 2694.04 700.672 2696.19 694.617C2697.95 689.734 2698.83 685.34 2698.83 681.434C2698.83 666.785 2693.75 655.359 2683.59 647.156C2672.07 637.977 2655.47 633.387 2633.79 633.387C2629.49 633.387 2626.17 634.168 2623.83 635.73C2621.29 637.488 2620.02 640.711 2620.02 645.398V730.066ZM2871.09 781.336C2871.09 786.414 2871.29 793.152 2871.68 801.551C2871.88 808.777 2872.07 813.465 2872.27 815.613C2872.85 822.645 2877.25 826.16 2885.45 826.16H2897.17C2898.54 826.16 2899.22 826.844 2899.22 828.211V835.242C2899.22 837 2898.54 837.879 2897.17 837.879L2885.16 837.293C2881.25 837.098 2877.25 837 2873.14 837H2839.75C2835.45 837 2831.54 837.098 2828.03 837.293L2817.19 837.879C2816.02 837.879 2815.43 837.098 2815.43 835.535V828.211C2815.43 826.844 2816.11 826.16 2817.48 826.16H2832.13C2838.77 826.16 2842.29 823.719 2842.68 818.836C2842.87 816.102 2843.07 809.754 2843.26 799.793C2843.46 787.879 2843.55 775.574 2843.55 762.879V745.594C2842.58 743.445 2839.16 737.391 2833.3 727.43L2814.26 695.203C2806.45 681.922 2799.71 670.887 2794.04 662.098C2787.4 651.551 2783.11 645.008 2781.15 642.469C2777.05 637.781 2771.88 635.438 2765.62 635.438H2758.3C2756.74 635.438 2755.96 634.754 2755.96 633.387V625.477C2755.96 624.305 2756.74 623.719 2758.3 623.719L2769.73 624.012C2777.93 624.402 2785.74 624.598 2793.16 624.598H2812.79L2837.99 623.719C2839.36 623.719 2840.04 624.207 2840.04 625.184V632.801C2840.04 634.559 2839.36 635.438 2837.99 635.438H2828.03C2821 635.438 2817.97 638.758 2818.95 645.398L2820.7 649.793L2865.82 732.41L2896.58 685.242C2903.61 674.695 2908.98 666.395 2912.7 660.34L2917.97 651.551L2920.02 647.156C2920.8 643.445 2920.9 640.809 2920.31 639.246C2919.14 636.707 2915.72 635.438 2910.06 635.438H2902.15C2900.78 635.438 2900.1 634.559 2900.1 632.801V625.477C2900.1 624.305 2900.78 623.719 2902.15 623.719H2905.96C2906.15 623.914 2906.45 624.012 2906.84 624.012H2913.57C2921.39 624.402 2929.39 624.598 2937.6 624.598L2961.04 624.012C2961.23 624.012 2961.33 623.914 2961.33 623.719H2964.55C2966.11 623.719 2966.89 624.305 2966.89 625.477V632.801C2966.89 634.559 2966.11 635.438 2964.55 635.438H2956.93C2951.66 635.438 2946.78 637.586 2942.29 641.883C2941.5 642.469 2940.14 644.324 2938.18 647.449C2936.04 649.793 2933.4 653.211 2930.27 657.703L2871.09 741.785V781.336Z" fill="#B07D1E"/>
<path d="M3615.4 894C3599 894 3578.6 884.2 3554.2 864.6C3537 861.8 3522.2 858 3509.8 853.2C3497.8 848.8 3487.8 843.4 3479.8 837C3468.6 827.4 3458.8 814.6 3450.4 798.6C3442 782.6 3437.8 767.2 3437.8 752.4C3437.8 741.2 3440.4 731.2 3445.6 722.4C3457.6 701.2 3472.8 690.6 3491.2 690.6C3505.2 690.6 3513.4 702.4 3515.8 726C3518.6 748 3520.8 765.6 3522.4 778.8C3524.4 791.6 3526 800 3527.2 804C3533.2 823.6 3543.4 840.2 3557.8 853.8C3574.6 857.4 3592.8 859.2 3612.4 859.2C3655.6 859.2 3697 851 3736.6 834.6C3753.4 827.4 3769.8 818 3785.8 806.4C3801.8 794.8 3815 782 3825.4 768C3835.8 754 3841 740.4 3841 727.2C3841 708.4 3824.4 693.8 3791.2 683.4L3685.6 659.4C3664 654.6 3646.6 646.2 3633.4 634.2C3620.6 621.8 3614.2 607.8 3614.2 592.2C3614.2 568.2 3629.2 544.2 3659.2 520.2C3674.4 507.8 3692.2 497.4 3712.6 489C3733 480.2 3754.4 473.6 3776.8 469.2C3799.6 464.4 3821.4 462 3842.2 462C3871.8 462 3897 466.6 3917.8 475.8C3939 485 3952.2 498.4 3957.4 516C3958.6 520 3959.2 524.4 3959.2 529.2C3959.2 553.6 3947 570.6 3922.6 580.2C3907.8 586.2 3895.2 589.2 3884.8 589.2C3878.4 589.2 3873.4 588 3869.8 585.6C3869 584.8 3868.6 583.8 3868.6 582.6C3868.6 579.8 3874.2 578.2 3885.4 577.8C3892.2 577.4 3897.8 576.8 3902.2 576C3906.6 575.2 3909.8 574.4 3911.8 573.6C3927 565.6 3934.6 553.8 3934.6 538.2C3934.6 530.2 3932.4 521.8 3928 513C3915.6 490.2 3884.6 478.8 3835 478.8C3817 478.8 3798.4 480.8 3779.2 484.8C3760 488.4 3741.8 494 3724.6 501.6C3707.4 508.8 3692.8 518 3680.8 529.2C3660 548.4 3649.6 565.6 3649.6 580.8C3649.6 592.4 3655.2 602.8 3666.4 612C3678 620.8 3695.4 627.4 3718.6 631.8L3789.4 645C3816.6 650.2 3838.6 658 3855.4 668.4C3872.2 678.4 3880.6 693.8 3880.6 714.6C3880.6 733 3876 750.2 3866.8 766.2C3857.6 782.2 3845.2 796.6 3829.6 809.4C3814.4 821.8 3797 832.2 3777.4 840.6C3733 860.2 3680.6 870 3620.2 870C3612.6 870 3605 869.8 3597.4 869.4C3589.8 869 3582.4 868.4 3575.2 867.6C3580.8 870.8 3587.8 874 3596.2 877.2C3605 880.4 3615 883.4 3626.2 886.2C3627.4 886.6 3628 887.4 3628 888.6C3628 892.2 3623.8 894 3615.4 894ZM3536.2 847.8C3525.4 835.8 3517 823.4 3511 810.6C3502.2 790.6 3495.6 766 3491.2 736.8C3488 715.6 3484.6 705 3481 705C3477.8 705 3473.4 707.4 3467.8 712.2C3462.6 717 3460 727.2 3460 742.8C3460 773.2 3470.8 799.6 3492.4 822C3503.2 833.2 3517.8 841.8 3536.2 847.8ZM3922.63 838.2C3912.63 838.2 3904.83 833.6 3899.23 824.4C3893.63 814.8 3890.83 805.6 3890.83 796.8C3890.83 772.8 3908.23 739.2 3943.03 696C3978.23 652.4 4006.63 630.6 4028.23 630.6C4048.63 630.6 4058.83 641.4 4058.83 663C4058.83 666.2 4058.43 669.6 4057.63 673.2C4057.23 676.8 4056.63 680.6 4055.83 684.6C4056.63 685.8 4058.63 686.4 4061.83 686.4C4072.63 686.4 4085.43 682.6 4100.23 675C4099.83 681.8 4084.03 691.6 4052.83 704.4C4057.23 717.6 4044.03 742.8 4013.23 780C3981.63 818.8 3954.63 838.2 3932.23 838.2H3922.63ZM3933.43 820.2C3950.63 820.2 3972.63 804.4 3999.43 772.8C4025.43 742 4038.43 719.8 4038.43 706.2C4032.03 702.6 4024.03 693.4 4014.43 678.6C4000.83 678.6 3981.23 695 3955.63 727.8C3930.43 759.8 3918.23 784.4 3919.03 801.6C3919.43 814 3924.23 820.2 3933.43 820.2ZM4111.18 838.2C4099.58 838.2 4088.78 835.4 4078.78 829.8C4068.78 823.8 4063.78 814 4063.78 800.4C4063.78 781.6 4070.38 759.2 4083.58 733.2C4097.18 707.2 4112.58 680.2 4129.78 652.2C4176.58 576.2 4209.78 538.2 4229.38 538.2C4233.38 538.2 4237.38 539.8 4241.38 543C4245.78 545.8 4248.18 549 4248.58 552.6L4206.58 609C4190.18 631 4175.38 651.4 4162.18 670.2C4148.98 688.6 4137.58 705.2 4127.98 720C4123.18 727.6 4117.78 736.2 4111.78 745.8C4105.78 755.4 4100.38 765.4 4095.58 775.8C4091.18 785.8 4088.98 796 4088.98 806.4C4088.98 811.2 4090.38 815.6 4093.18 819.6C4095.98 823.2 4100.98 825 4108.18 825C4120.98 825 4137.78 818.2 4158.58 804.6C4179.38 790.6 4199.98 771.4 4220.38 747C4222.38 744.6 4224.58 742.4 4226.98 740.4C4229.38 738.4 4231.38 737.4 4232.98 737.4C4234.98 737.4 4235.98 738.6 4235.98 741C4235.98 742.2 4234.58 744.6 4231.78 748.2C4229.38 751.4 4227.38 754 4225.78 756L4211.38 772.2C4203.38 781 4193.78 790.6 4182.58 801C4171.78 811.4 4160.18 820.2 4147.78 827.4C4135.78 834.6 4123.58 838.2 4111.18 838.2ZM4239.68 843.6C4221.68 843.6 4212.68 832.2 4212.68 809.4C4212.68 800.6 4215.28 790.2 4220.48 778.2C4226.08 765.8 4233.88 752.8 4243.88 739.2C4243.88 739.2 4240.28 742.6 4233.08 749.4C4225.88 756.2 4217.68 764.8 4208.48 775.2C4206.88 776.8 4204.88 777.6 4202.48 777.6C4200.88 777.6 4200.08 776.6 4200.08 774.6C4200.08 772.6 4201.88 769.2 4205.48 764.4L4288.28 667.2C4298.68 655.2 4310.08 649.2 4322.48 649.2C4331.68 649.2 4336.28 652.8 4336.28 660C4336.28 662.8 4335.08 665.4 4332.68 667.8C4325.08 675 4315.68 685.2 4304.48 698.4C4293.68 711.6 4283.08 725.8 4272.68 741C4262.28 756.2 4253.48 770.8 4246.28 784.8C4239.48 798.4 4236.08 809.4 4236.08 817.8C4236.08 825 4238.48 828.6 4243.28 828.6C4246.08 828.6 4250.48 827.6 4256.48 825.6C4262.48 823.2 4270.48 818.6 4280.48 811.8C4290.48 804.6 4302.48 793.6 4316.48 778.8C4318.88 776.4 4325.28 769.2 4335.68 757.2C4346.08 745.2 4360.08 728 4377.68 705.6C4408.88 666.8 4429.28 647.4 4438.88 647.4C4452.08 647.4 4459.28 652.8 4460.48 663.6C4461.28 667.2 4452.88 679 4435.28 699C4412.48 726.6 4396.88 746.4 4388.48 758.4C4372.88 781.2 4365.08 799 4365.08 811.8C4365.08 820.6 4368.08 825 4374.08 825C4380.08 825 4387.68 822.2 4396.88 816.6C4406.48 810.6 4416.48 803.2 4426.88 794.4C4437.28 785.2 4447.28 775.8 4456.88 766.2C4466.88 756.2 4475.48 747 4482.68 738.6C4485.08 735.8 4487.48 734.4 4489.88 734.4C4492.28 734.4 4493.48 735.6 4493.48 738C4493.48 738.8 4493.28 740 4492.88 741.6C4492.48 743.2 4491.28 745 4489.28 747C4482.88 754.2 4474.68 763.2 4464.68 774C4454.68 784.4 4443.88 794.8 4432.28 805.2C4420.68 815.6 4409.48 824.2 4398.68 831C4387.88 837.8 4378.68 841.2 4371.08 841.2C4361.88 841.2 4353.88 838.8 4347.08 834C4340.28 828.8 4336.88 821.8 4336.88 813C4336.88 804.2 4338.28 795.4 4341.08 786.6C4343.88 777.4 4346.08 769.6 4347.68 763.2C4328.88 785.2 4312.28 802 4297.88 813.6C4283.88 825.2 4272.08 833 4262.48 837C4252.88 841.4 4245.28 843.6 4239.68 843.6ZM4503.56 840.6C4490.76 840.6 4480.56 837.6 4472.96 831.6C4465.76 825.2 4462.16 814 4462.16 798C4462.16 788.8 4464.96 777.2 4470.56 763.2C4476.16 748.8 4483.16 733.4 4491.56 717C4499.96 700.6 4508.36 684.4 4516.76 668.4C4511.56 669.6 4506.96 670.2 4502.96 670.2C4490.96 670.2 4484.96 665.6 4484.96 656.4C4484.96 652 4486.56 648.6 4489.76 646.2C4493.36 643.8 4496.56 642.4 4499.36 642C4499.36 642 4499.76 642 4500.56 642C4501.76 642 4503.16 641.8 4504.76 641.4H4539.56C4546.76 632.2 4554.16 622.4 4561.76 612C4572.56 598.4 4581.16 590.4 4587.56 588H4589.36C4592.16 588 4596.16 589.4 4601.36 592.2C4607.76 595.8 4610.96 599.4 4610.96 603C4610.96 608.2 4601.36 621.6 4582.16 643.2C4585.76 643.6 4590.96 643.8 4597.76 643.8C4604.56 643.8 4612.96 643.8 4622.96 643.8C4627.76 643.8 4634.56 643.8 4643.36 643.8C4652.56 643.8 4661.96 643.8 4671.56 643.8C4681.56 643.4 4690.16 643.2 4697.36 643.2C4704.56 642.8 4708.56 642.6 4709.36 642.6C4710.56 643 4711.16 643.6 4711.16 644.4C4711.16 648 4687.56 652.8 4640.36 658.8C4613.56 662.4 4592.96 665.2 4578.56 667.2C4564.56 669.2 4556.96 670.4 4555.76 670.8C4550.16 675.6 4543.36 683.8 4535.36 695.4C4527.36 707 4519.36 720 4511.36 734.4C4503.36 748.8 4496.56 762.6 4490.96 775.8C4485.76 788.6 4483.16 798.6 4483.16 805.8C4483.16 812.2 4485.56 817.6 4490.36 822C4495.16 826 4502.96 828 4513.76 828C4520.96 828 4529.56 826.4 4539.56 823.2C4549.56 820 4558.96 816.4 4567.76 812.4C4576.96 808 4583.56 804.6 4587.56 802.2C4597.96 795.8 4609.36 787.4 4621.76 777C4634.56 766.2 4647.16 754 4659.56 740.4C4665.16 734.8 4668.96 732 4670.96 732C4672.16 732 4672.76 732.8 4672.76 734.4C4672.76 737.6 4669.76 742.8 4663.76 750C4654.16 761.6 4643.36 772.8 4631.36 783.6C4619.76 794 4606.76 803.6 4592.36 812.4C4575.96 822.4 4560.16 829.6 4544.96 834C4530.16 838.4 4516.36 840.6 4503.56 840.6ZM4777.08 630.6C4770.28 630.6 4764.28 628.4 4759.08 624C4754.28 619.6 4751.88 614.6 4751.88 609C4751.88 597.8 4759.48 592.2 4774.68 592.2C4780.28 592.2 4785.88 594.2 4791.48 598.2C4797.08 601.8 4799.88 606.4 4799.88 612C4799.88 616.8 4797.28 621.2 4792.08 625.2C4786.88 628.8 4781.88 630.6 4777.08 630.6ZM4666.08 843.6C4657.28 843.6 4650.08 840.8 4644.48 835.2C4638.48 829.2 4635.48 818.8 4635.48 804C4635.48 795.6 4637.48 786 4641.48 775.2C4645.08 764 4649.68 752.8 4655.28 741.6C4661.28 730.4 4667.08 720.4 4672.68 711.6C4695.08 675.2 4713.48 656.8 4727.88 656.4C4731.48 656.4 4735.88 658 4741.08 661.2C4746.28 664 4748.88 667.2 4748.88 670.8C4748.88 670.8 4733.68 690.4 4703.28 729.6C4673.28 768.4 4658.28 796 4658.28 812.4C4658.28 825.2 4663.28 831.6 4673.28 831.6C4679.68 831.6 4687.88 829 4697.88 823.8C4708.28 818.2 4719.08 811.2 4730.28 802.8C4741.48 794.4 4752.08 785.4 4762.08 775.8C4772.48 766.2 4780.88 757.4 4787.28 749.4C4791.28 744.2 4794.68 740.6 4797.48 738.6C4800.68 736.6 4802.68 735.6 4803.48 735.6C4805.08 735.6 4805.88 736.8 4805.88 739.2C4805.88 741.2 4803.48 745.2 4798.68 751.2C4794.28 757.2 4788.08 764.2 4780.08 772.2C4770.48 781.8 4759.88 792.2 4748.28 803.4C4736.68 814.6 4724.08 824.2 4710.48 832.2C4696.88 839.8 4682.08 843.6 4666.08 843.6ZM4805.64 838.2C4795.64 838.2 4787.84 833.6 4782.24 824.4C4776.64 814.8 4773.84 805.6 4773.84 796.8C4773.84 772.8 4791.24 739.2 4826.04 696C4861.24 652.4 4889.64 630.6 4911.24 630.6C4931.64 630.6 4941.84 641.4 4941.84 663C4941.84 666.2 4941.44 669.6 4940.64 673.2C4940.24 676.8 4939.64 680.6 4938.84 684.6C4939.64 685.8 4941.64 686.4 4944.84 686.4C4955.64 686.4 4968.44 682.6 4983.24 675C4982.84 681.8 4967.04 691.6 4935.84 704.4C4940.24 717.6 4927.04 742.8 4896.24 780C4864.64 818.8 4837.64 838.2 4815.24 838.2H4805.64ZM4816.44 820.2C4833.64 820.2 4855.64 804.4 4882.44 772.8C4908.44 742 4921.44 719.8 4921.44 706.2C4915.04 702.6 4907.04 693.4 4897.44 678.6C4883.84 678.6 4864.24 695 4838.64 727.8C4813.44 759.8 4801.24 784.4 4802.04 801.6C4802.44 814 4807.24 820.2 4816.44 820.2ZM5101.59 838.2C5090.79 838.2 5083.19 835.2 5078.79 829.2C5074.39 822.8 5072.19 815 5072.19 805.8C5072.19 782.6 5080.19 757.8 5096.19 731.4L5134.59 669C5107.39 689 5080.39 714 5053.59 744C5046.39 752 5038.19 761.4 5028.99 772.2C5020.19 783 5010.39 795.4 4999.59 809.4C4985.19 828.2 4976.59 837.6 4973.79 837.6C4968.19 837.6 4963.59 835.2 4959.99 830.4C4956.39 825.2 4954.59 820.6 4954.59 816.6C4954.59 813.4 4955.59 807.6 4957.59 799.2C4959.59 790.4 4961.99 782.8 4964.79 776.4C4967.59 769.6 4970.39 763 4973.19 756.6C4976.39 749.8 4979.39 743.2 4982.19 736.8L4946.19 774.6C4945.39 775.4 4942.99 777.8 4938.99 781.8C4934.99 785.8 4931.79 787.8 4929.39 787.8C4927.39 787.8 4926.39 786.4 4926.39 783.6C4926.39 782.8 4926.79 781.8 4927.59 780.6C4927.99 779 4929.19 777.2 4931.19 775.2C4937.19 769.2 4943.39 762.8 4949.79 756C4956.19 749.2 4962.79 741.4 4969.59 732.6C4973.19 728.2 4978.59 721.6 4985.79 712.8C4992.99 703.6 5000.79 693.8 5009.19 683.4C5017.99 673 5026.19 663.4 5033.79 654.6C5035.79 651.8 5037.99 650 5040.39 649.2C5042.79 648 5044.39 647.4 5045.19 647.4C5055.99 647.4 5061.39 651.6 5061.39 660C5061.39 662.4 5060.79 664.8 5059.59 667.2C5023.59 716.8 5001.99 754.6 4994.79 780.6C5041.19 734.2 5078.39 699.4 5106.39 676.2C5134.79 652.6 5154.99 640.8 5166.99 640.8C5173.39 640.8 5178.19 641.8 5181.39 643.8C5184.99 645.8 5186.79 649.6 5186.79 655.2C5186.79 657.2 5186.59 658.8 5186.19 660C5184.99 662.8 5176.79 674 5161.59 693.6C5152.39 704.8 5144.19 715 5136.99 724.2C5130.19 733.4 5124.59 741.4 5120.19 748.2C5112.99 759.4 5107.59 770 5103.99 780C5100.39 789.6 5098.59 797.8 5098.59 804.6C5098.59 807.4 5098.99 810.8 5099.79 814.8C5100.59 818.8 5102.99 820.8 5106.99 820.8C5116.19 820.8 5130.59 812.8 5150.19 796.8C5159.39 788.8 5167.99 780.8 5175.99 772.8C5183.99 764.4 5191.59 756.2 5198.79 748.2C5200.39 746.6 5202.99 743.6 5206.59 739.2C5210.19 734.4 5212.39 732 5213.19 732C5214.79 732 5215.59 733.6 5215.59 736.8C5215.59 738.4 5214.59 741.2 5212.59 745.2C5210.99 748.8 5209.19 751.6 5207.19 753.6C5202.79 758.8 5196.19 766 5187.39 775.2C5178.99 784.4 5169.39 793.8 5158.59 803.4C5148.19 813 5137.99 821.2 5127.99 828C5117.99 834.8 5109.19 838.2 5101.59 838.2ZM5259.58 838.2C5240.78 838.2 5226.78 832 5217.58 819.6C5208.78 807.2 5201.58 790 5195.98 768C5188.78 775.2 5183.78 778.8 5180.98 778.8C5178.98 778.8 5177.98 777.2 5177.98 774C5177.98 771.6 5178.98 769.4 5180.98 767.4C5180.98 767.4 5185.98 761.2 5195.98 748.8C5206.38 736.4 5223.78 719 5248.18 696.6L5323.78 625.8C5334.18 615.8 5342.38 608.2 5348.38 603C5354.78 597.8 5359.38 595.2 5362.18 595.2C5374.98 595.2 5381.38 600 5381.38 609.6C5381.38 614.4 5378.78 620 5373.58 626.4C5369.58 631.2 5366.58 635 5364.58 637.8C5362.98 640.2 5361.98 641.6 5361.58 642C5354.38 654.4 5347.78 676.6 5341.78 708.6C5337.38 732.2 5333.58 751.6 5330.38 766.8C5327.18 782 5324.58 793 5322.58 799.8C5339.38 799.4 5355.98 794.2 5372.38 784.2C5388.78 774.2 5406.38 757.8 5425.18 735C5425.98 734.2 5427.18 733 5428.78 731.4C5430.38 729.8 5431.98 729 5433.58 729C5435.98 729 5437.18 730 5437.18 732C5437.18 734 5436.58 736 5435.38 738C5434.18 740 5432.98 741.8 5431.78 743.4C5419.38 758.2 5407.78 770.4 5396.98 780C5386.18 789.2 5374.78 796.6 5362.78 802.2C5350.78 807.4 5336.58 811.8 5320.18 815.4L5300.98 828C5295.78 831.6 5289.58 834.2 5282.38 835.8C5275.18 837.4 5267.58 838.2 5259.58 838.2ZM5266.78 807.6C5275.98 807.6 5283.58 805.4 5289.58 801C5293.98 798.6 5298.18 792 5302.18 781.2C5306.58 770 5310.78 756.2 5314.78 739.8C5317.98 725.8 5320.38 712.2 5321.98 699C5323.98 685.4 5325.78 672.4 5327.38 660L5329.78 639.6C5320.58 646.4 5308.98 656.2 5294.98 669C5280.98 681.8 5267.18 695.2 5253.58 709.2C5239.98 723.2 5231.18 733.6 5227.18 740.4C5223.18 746.8 5220.98 751.6 5220.58 754.8C5218.98 770.8 5222.78 783.6 5231.98 793.2C5241.58 802.8 5253.18 807.6 5266.78 807.6ZM5457.2 885C5455.6 884.6 5454.8 884 5454.8 883.2C5454.8 882.8 5459.4 877.4 5468.6 867C5477.8 856.6 5481.8 847.4 5480.6 839.4C5480.2 835 5477.4 831.2 5472.2 828C5467 824.4 5464.4 820.8 5464.4 817.2C5464.4 805.2 5470.2 799.2 5481.8 799.2C5487.4 799.2 5493 801.2 5498.6 805.2C5504.2 808.8 5507 813.6 5507 819.6C5507 836.4 5500 852.4 5486 867.6C5473.2 880.8 5463.6 886.6 5457.2 885ZM5606.01 568.055C5606.01 514.539 5605.42 477.039 5604.25 455.555C5603.08 441.102 5595.66 433.875 5581.98 433.875H5553.86C5551.12 433.875 5549.76 431.922 5549.76 428.016V414.539C5549.76 411.805 5551.12 410.438 5553.86 410.438L5599.56 412.195H5669.88L5720.85 410.438C5724.37 410.438 5726.12 412 5726.12 415.125V429.188C5726.12 432.312 5724.17 433.875 5720.27 433.875H5684.52C5670.46 433.875 5663.43 441.688 5663.43 457.312L5661.67 559.266L5662.26 778.992C5662.65 796.57 5663.04 808.094 5663.43 813.562C5666.55 813.953 5675.34 814.148 5689.8 814.148C5704.25 814.539 5719.88 814.734 5736.67 814.734H5784.72C5791.75 814.734 5797.61 814.539 5802.3 814.148C5807.77 814.148 5811.67 813.953 5814.02 813.562C5829.64 811.219 5846.24 796.57 5863.82 769.617C5870.46 760.242 5876.71 749.5 5882.57 737.391C5887.65 727.625 5891.36 719.422 5893.7 712.781C5894.88 710.438 5896.44 709.656 5898.39 710.438L5907.77 713.953C5909.33 714.734 5909.91 716.492 5909.52 719.227C5909.13 720.008 5907.38 726.062 5904.25 737.391L5895.46 774.891C5886.87 807.703 5881.59 828.992 5879.64 838.758C5875.73 838.367 5863.62 837.977 5843.31 837.586L5584.33 837C5580.03 837.391 5576.52 837.586 5573.78 837.586L5550.34 838.758C5547.22 838.758 5545.66 837.391 5545.66 834.656V819.422C5545.66 816.688 5547.02 815.32 5549.76 815.32H5578.47C5588.62 815.32 5595.66 813.562 5599.56 810.047C5602.69 807.703 5604.25 803.992 5604.25 798.914L5606.01 645.984V568.055ZM6002.69 568.055C6002.69 514.539 6002.1 477.039 6000.93 455.555C5999.76 441.102 5992.34 433.875 5978.66 433.875H5950.54C5947.8 433.875 5946.44 431.922 5946.44 428.016V414.539C5946.44 411.805 5947.8 410.438 5950.54 410.438L5996.24 412.195H6066.55L6117.53 410.438C6121.05 410.438 6122.8 412 6122.8 415.125V429.188C6122.8 432.312 6120.85 433.875 6116.95 433.875H6081.2C6067.14 433.875 6060.11 441.688 6060.11 457.312L6058.35 559.266L6058.94 778.992C6059.33 796.57 6059.72 808.094 6060.11 813.562C6063.23 813.953 6072.02 814.148 6086.48 814.148C6100.93 814.539 6116.55 814.734 6133.35 814.734H6181.4C6188.43 814.734 6194.29 814.539 6198.98 814.148C6204.45 814.148 6208.35 813.953 6210.7 813.562C6226.32 811.219 6242.92 796.57 6260.5 769.617C6267.14 760.242 6273.39 749.5 6279.25 737.391C6284.33 727.625 6288.04 719.422 6290.38 712.781C6291.55 710.438 6293.12 709.656 6295.07 710.438L6304.45 713.953C6306.01 714.734 6306.59 716.492 6306.2 719.227C6305.81 720.008 6304.05 726.062 6300.93 737.391L6292.14 774.891C6283.55 807.703 6278.27 828.992 6276.32 838.758C6272.41 838.367 6260.3 837.977 6239.99 837.586L5981.01 837C5976.71 837.391 5973.2 837.586 5970.46 837.586L5947.02 838.758C5943.9 838.758 5942.34 837.391 5942.34 834.656V819.422C5942.34 816.688 5943.7 815.32 5946.44 815.32H5975.15C5985.3 815.32 5992.34 813.562 5996.24 810.047C5999.37 807.703 6000.93 803.992 6000.93 798.914L6002.69 645.984V568.055ZM6561.09 845.789C6527.49 845.789 6497.8 840.906 6472.02 831.141C6449.76 822.156 6428.86 808.68 6409.33 790.711C6388.23 771.18 6372.22 745.203 6361.28 712.781C6350.34 683.484 6344.88 653.406 6344.88 622.547C6344.88 593.641 6349.76 565.906 6359.52 539.344C6369.68 510.828 6385.11 485.633 6405.81 463.758C6422.22 446.18 6442.92 431.922 6467.92 420.984C6496.05 409.266 6525.34 403.406 6555.81 403.406C6580.42 403.406 6604.84 407.312 6629.05 415.125C6646.63 420.594 6662.65 427.625 6677.1 436.219C6684.13 440.125 6688.23 440.125 6689.41 436.219L6694.09 418.641C6694.88 416.297 6697.41 415.125 6701.71 415.125C6706.4 415.125 6708.74 418.445 6708.74 425.086C6708.74 427.82 6709.33 434.461 6710.5 445.008L6715.19 481.336C6719.09 511.805 6721.83 531.727 6723.39 541.102C6724.17 544.617 6723.39 546.57 6721.05 546.961L6712.26 549.891C6709.52 550.281 6707.38 548.523 6705.81 544.617C6700.34 530.945 6694.88 519.422 6689.41 510.047C6680.42 495.203 6670.46 481.922 6659.52 470.203C6645.46 455.75 6630.81 444.812 6615.58 437.391C6597.22 428.406 6576.91 423.914 6554.64 423.914C6529.25 423.914 6506.4 429.383 6486.09 440.32C6467.73 450.477 6452.3 464.734 6439.8 483.094C6415.97 516.688 6404.25 558.094 6404.64 607.312C6404.64 617.078 6405.42 627.625 6406.98 638.953C6409.33 652.234 6412.45 665.32 6416.36 678.211C6420.66 693.445 6426.52 707.508 6433.94 720.398C6441.75 735.633 6451.32 749.305 6462.65 761.414C6481.4 782.117 6500.54 796.18 6520.07 803.602C6534.91 809.07 6554.05 811.805 6577.49 811.805C6609.13 811.805 6639.02 803.992 6667.14 788.367C6690.97 774.695 6710.5 757.117 6725.73 735.633C6727.3 732.898 6728.86 732.312 6730.42 733.875L6738.62 739.734C6740.58 741.297 6740.97 743.055 6739.8 745.008C6719.48 774.695 6695.66 798.133 6668.31 815.32C6635.89 835.633 6600.15 845.789 6561.09 845.789Z" fill="#B07D1E"/>
</svg>
